<?xml version="1.0" encoding="UTF-8" standalone="no"?>
<svg
   xmlns:dc="http://purl.org/dc/elements/1.1/"
   xmlns:cc="http://creativecommons.org/ns#"
   xmlns:rdf="http://www.w3.org/1999/02/22-rdf-syntax-ns#"
   xmlns:svg="http://www.w3.org/2000/svg"
   xmlns="http://www.w3.org/2000/svg"
   viewBox="0 0 4804.9331 5294.9468"
   height="5294.9468"
   width="4804.9331"
   xml:space="preserve"
   id="svg2"
   version="1.1"><metadata
     id="metadata8"><rdf:RDF><cc:Work
         rdf:about=""><dc:format>image/svg+xml</dc:format><dc:type
           rdf:resource="http://purl.org/dc/dcmitype/StillImage" /></cc:Work></rdf:RDF></metadata><defs
     id="defs6" /><g
     transform="matrix(1.3333333,0,0,-1.3333333,0,5294.9467)"
     id="g10"><g
       transform="scale(0.1)"
       id="g12"><g
         transform="scale(2.43632)"
         id="g14"><path
           id="path16"
           style="fill:#81cd39;fill-opacity:1;fill-rule:nonzero;stroke:none"
           d="m 6728.39,16126.1 c 404.17,231.4 930.62,232.4 1334.43,0 2031.58,-1147.9 4063.78,-2294 6094.98,-3442.7 382,-215.2 637.6,-640.4 633.7,-1080.6 V 4696.35 c 2.9,-458.44 -277.9,-893.77 -681,-1104.09 C 12085.6,2450.62 10061.7,1307.63 8037.21,165.989 7624.7,-69.8592 7087.7,-51.6757 6688.04,203.506 6080.98,555.429 5472.89,905.588 4865.78,1257.18 c -124.08,73.97 -263.92,132.83 -351.51,253.09 77.41,104.38 215.9,117.39 328.4,162.95 253.38,80.62 486.15,209.95 718.92,335.47 58.86,40.26 130.73,24.83 187.16,-11.21 519.11,-297.66 1033.65,-603.94 1554.48,-898.73 111.11,-64.16 223.62,21.01 318.6,73.96 1987.05,1123.05 3976.57,2241.83 5963.17,3365.2 73.7,35.42 114.4,113.58 108.4,194.23 1.4,2278.27 0.3,4556.96 0.7,6835.26 8.4,91.5 -44.5,175.6 -127.3,213.1 -2017.8,1136.4 -4034.67,2274.5 -6052.19,3411.2 -71.54,49.2 -165.98,49.3 -237.65,0.3 -2017.55,-1137 -4034.01,-2276.2 -6051.52,-3412.5 -82.44,-37.5 -137.77,-120.3 -127.95,-212.1 0.34,-2278.3 0,-4556.99 0,-6835.63 -7.17,-80.57 36.61,-157.08 109.72,-191.76 538.38,-305.3 1077.46,-608.42 1616.19,-912.69 303.51,-163.36 676.15,-260.44 1010.54,-135.29 295.08,105.86 501.9,406.97 496.28,720.27 2.79,2265.01 -1.39,4530.36 2.1,6795 -7.35,100.6 88,183.6 185.77,174.2 258.71,1.7 517.7,3.4 776.41,-0.7 107.95,2.4 182.29,-105.9 168.95,-207.2 -1.07,-2279.29 2.75,-4558.72 -1.77,-6838.02 0.7,-607.47 -248.86,-1268.47 -810.77,-1565.72 -692.22,-358.57 -1547.81,-282.51 -2231.67,61.32 -592.02,295.49 -1157,644.21 -1738.516,960.76 C 276.615,3801.1 -2.79462,4238.2 0.0513069,4696.31 V 11602.8 C -4.18793,12052.2 261.521,12485.1 655.468,12697.1 c 2024.542,1142.6 4048.762,2286 6072.922,3429" /></g><g
         transform="scale(1.85748)"
         id="g18"><path
           id="path20"
           style="fill:#81cd39;fill-opacity:1;fill-rule:nonzero;stroke:none"
           d="m 11141.7,14876.4 c 1158.2,74.6 2398,44.2 3440.2,-526.3 806.9,-437.3 1254.2,-1354.9 1268.5,-2251.3 -22.5,-120.9 -149,-187.6 -264.4,-179.3 -336,0.4 -672.1,-4.6 -1008.1,2.2 -142.6,-5.5 -225.4,126 -243.3,252 -96.6,428.9 -330.5,853.7 -734.2,1060.6 -619.7,310.3 -1338.3,294.6 -2014.1,288.2 -493.3,-26.2 -1023.8,-68.9 -1441.8,-359 -320.84,-219.8 -418.28,-663.4 -303.77,-1020.7 107.99,-256.5 404.07,-339.3 646.37,-415.5 1395.7,-365.1 2874.7,-328.8 4243.8,-809.1 566.8,-195.9 1121.3,-576.6 1315.3,-1170.07 253.8,-795.43 142.6,-1746.13 -423.4,-2384.68 -458.9,-525.44 -1127.2,-811.47 -1793.9,-966.79 -886.8,-197.74 -1807.2,-202.8 -2707.8,-114.99 -846.9,96.58 -1728.18,319.03 -2381.92,896.05 -559.09,485.44 -832.14,1241.78 -805.01,1971.75 6.46,123.28 129.21,209.26 247.32,199.14 338.36,2.75 676.78,3.66 1015.14,-0.48 135.18,9.69 235.37,-107.14 242.32,-234.51 62.39,-408.68 215.99,-837.59 572.35,-1079.85 687.7,-443.72 1550.7,-413.36 2338.1,-425.74 652.4,28.91 1384.8,37.69 1917.2,468.86 280.9,245.98 364.1,657.45 288.2,1011.48 -82.2,298.84 -394.9,438.12 -663.4,529.15 -1377.8,435.88 -2873.3,277.69 -4237.81,770.58 -553.97,195.8 -1089.64,565.9 -1302.46,1135 -296.96,805.5 -160.91,1801.7 464.34,2418.7 609.59,613.7 1489.63,850.1 2326.23,934.7 v -0.1" /></g></g></g></svg>